<svg width="24" height="24" fill="none" xmlns="http://www.w3.org/2000/svg"><path d="M1.2 17.6a1.2 1.2 0 01-.14-2.392l.14-.008h13.2a3.6 3.6 0 013.6-3.6h2.4a3.6 3.6 0 013.6 3.6v2.4a3.6 3.6 0 01-3.6 3.6H18a3.6 3.6 0 01-3.6-3.6H1.2zM20.4 14H18a1.2 1.2 0 00-1.192 1.06l-.008.14v2.4a1.2 1.2 0 001.06 1.192l.14.008h2.4a1.2 1.2 0 001.192-1.06l.008-.14v-2.4a1.2 1.2 0 00-1.06-1.192L20.4 14zM6 2a3.6 3.6 0 013.6 3.6h13.2a1.2 1.2 0 01.14 2.392L22.8 8H9.6A3.6 3.6 0 016 11.6H3.6A3.6 3.6 0 010 8V5.6A3.6 3.6 0 013.6 2H6zm0 2.4H3.6a1.2 1.2 0 00-1.192 1.06L2.4 5.6V8a1.2 1.2 0 001.06 1.192l.14.008H6a1.2 1.2 0 001.192-1.06L7.2 8V5.6a1.2 1.2 0 00-1.06-1.192L6 4.4z" fill="#FBFBFB"/></svg>