<svg width="24" height="29" fill="none" xmlns="http://www.w3.org/2000/svg"><g filter="url(#filter0_d_0_196)" fill="#fff"><path d="M12.028 16.165c-.25-.219-.455-.67-.455-1.003V3.605A.606.606 0 0010.968 3h-.775a.606.606 0 00-.605.605v11.557c0 .333-.213.774-.474.98 0 0-1.114.883-1.114 1.717 0 1.287 1.133 2.331 2.53 2.331 1.399 0 2.532-1.044 2.532-2.331 0-.794-1.034-1.695-1.034-1.695z"/><path d="M11.322 6.358a.606.606 0 01-.605.605h-.265a.606.606 0 01-.604-.605v-2.49c0-.333.271-.605.604-.605h.265c.332 0 .604.272.604.604v2.491zm3.27 7.243a1.033 1.033 0 11-2.067 0l1.02-1.86 1.047 1.86zm1.113 1.692a.6.6 0 11-1.2-.012l.602-1.074.598 1.086zm-.218-2.652a.357.357 0 11-.715-.007l.36-.64.355.647zm-3.48 5.696h.038c.04 0-.047.244-.194.543l-.048.097c-.147.298-.486.542-.753.542h-.971c-.267 0-.605-.244-.752-.542l-.048-.097c-.147-.299-.234-.543-.193-.543h2.921zm-1.662-.261c-.386-.023-.606-.147-.803-.52-.197-.375-.173-.519.025-.956l.013.001c.464.083.595.147.79.519.197.373.175.626-.025.955m.451-1.065c-.171-.01-.27-.065-.357-.232-.088-.166-.078-.23.011-.425h.005c.207.037.265.066.352.231.088.167.078.28-.011.426m.222 1.066c-.176-.216-.216-.393-.114-.68.104-.286.192-.343.52-.45l.006.007c.181.287.21.388.108.672-.103.286-.248.396-.52.45"/></g><defs><filter id="filter0_d_0_196" x="-4" y="0" width="32" height="32" filterUnits="userSpaceOnUse" color-interpolation-filters="sRGB"><feFlood flood-opacity="0" result="BackgroundImageFix"/><feColorMatrix in="SourceAlpha" values="0 0 0 0 0 0 0 0 0 0 0 0 0 0 0 0 0 0 127 0" result="hardAlpha"/><feOffset dy="4"/><feGaussianBlur stdDeviation="2"/><feComposite in2="hardAlpha" operator="out"/><feColorMatrix values="0 0 0 0 0 0 0 0 0 0 0 0 0 0 0 0 0 0 0.25 0"/><feBlend in2="BackgroundImageFix" result="effect1_dropShadow_0_196"/><feBlend in="SourceGraphic" in2="effect1_dropShadow_0_196" result="shape"/></filter></defs></svg>