<svg width="60" height="60" fill="none" xmlns="http://www.w3.org/2000/svg"><circle cx="30" cy="30" r="29.681" stroke="#E7B0C9" stroke-width=".638"/><circle cx="30" cy="30" r="26.489" stroke="#E7B0C9" stroke-width=".638"/><circle cx="30" cy="30" r="23.298" stroke="#E7B0C9" stroke-width=".638"/><path d="M20.59 47.121l-.287-.98a89.16 89.16 0 00-.735-2.697 306.446 306.446 0 00-2.41-8.62 205 205 0 00-1.47-5.024 218.08 218.08 0 00-1.472-4.861c-.245-.817-.64-1.416-1.184-1.798-.518-.38-1.24-.585-2.165-.612-.028-.028-.041-.055-.041-.082a.476.476 0 00-.082-.123l.286-2.083.858.04c.6.028 1.28.055 2.043.083h1.879c1.035 0 2.015-.028 2.941-.082l2.37-.204.939-.123.163.327-.204 1.96c-.899.055-1.593.15-2.083.287-.463.109-.79.272-.98.49-.164.19-.246.463-.246.817 0 .245.082.749.245 1.511.164.763.368 1.689.613 2.778.272 1.09.572 2.26.899 3.514.327 1.252.64 2.491.94 3.717.326 1.198.612 2.301.857 3.309.273.98.477 1.77.613 2.37l.245.857h.409c.3-.817.612-1.702.94-2.655.353-.98.707-2.002 1.061-3.064.382-1.062.75-2.138 1.103-3.227a231.52 231.52 0 011.062-3.268c.354-1.063.695-2.07 1.022-3.023a57.895 57.895 0 00-.245-1.022 11.179 11.179 0 00-.286-1.02c-.218-.764-.6-1.294-1.144-1.594-.518-.3-1.267-.463-2.247-.49l-.163-.205.326-2.083.531.04c.382 0 .845.015 1.39.042.544 0 1.102.013 1.674.04h1.43c.899 0 1.825-.027 2.778-.081l2.451-.204 1.021-.123.164.327-.205 1.96c-.898.055-1.593.137-2.083.246-.463.109-.79.272-.98.49-.164.218-.245.517-.245.899 0 .218.068.694.204 1.43.163.735.381 1.66.653 2.777.273 1.09.559 2.26.858 3.514.327 1.225.64 2.45.94 3.676.327 1.198.626 2.301.899 3.31a1210.757 1210.757 0 00.898 3.308h.368c.272-.735.599-1.648.98-2.737.382-1.117.79-2.315 1.226-3.595.463-1.307.912-2.6 1.348-3.88.436-1.308.83-2.52 1.185-3.636.354-1.144.64-2.097.858-2.86.217-.79.326-1.28.326-1.47 0-.49-.19-.831-.572-1.022-.38-.19-1.02-.286-1.92-.286H39.34l-.164-.204.327-2.084.9.082c.598.027 1.334.068 2.205.123.899.027 1.784.04 2.655.04h2.002a94.962 94.962 0 002.41-.122l-.286 2.288c-.708.027-1.212.177-1.511.449-.3.245-.6.763-.899 1.552l-7.966 21.733-4.248.858c-.028-.19-.164-.763-.409-1.716a278.45 278.45 0 00-.98-3.676 247.103 247.103 0 00-3.023-10.744h-.327l-5.147 15.278-4.29.858zm30.988-.204c-.871 0-1.525-.245-1.96-.736-.436-.517-.654-1.143-.654-1.879 0-.844.259-1.538.776-2.083.545-.545 1.24-.817 2.083-.817.872 0 1.526.259 1.961.776.463.49.695 1.117.695 1.88 0 .789-.259 1.47-.776 2.042-.518.544-1.226.817-2.125.817z" fill="#FBFBFB" fill-opacity=".5"/><path d="M19.772 47.121l-.286-.98a89.16 89.16 0 00-.736-2.697 306.446 306.446 0 00-2.41-8.62 205 205 0 00-1.47-5.024c-.49-1.688-.98-3.309-1.471-4.861-.245-.817-.64-1.416-1.185-1.798-.517-.38-1.239-.585-2.165-.612-.027-.028-.04-.055-.04-.082a.476.476 0 00-.082-.123l.286-2.083.857.04c.6.028 1.28.055 2.043.083h1.88c1.034 0 2.014-.028 2.94-.082l2.37-.204.94-.123.163.327-.204 1.96c-.9.055-1.594.15-2.084.287-.463.109-.79.272-.98.49-.164.19-.245.463-.245.817 0 .245.081.749.245 1.511.163.763.367 1.689.612 2.778.273 1.09.572 2.26.9 3.514.326 1.252.64 2.491.939 3.717.327 1.198.613 2.301.858 3.309.272.98.476 1.77.613 2.37l.245.857h.408c.3-.817.613-1.702.94-2.655.354-.98.708-2.002 1.062-3.064a113.09 113.09 0 001.103-3.227 231.52 231.52 0 011.062-3.268c.354-1.063.694-2.07 1.021-3.023a57.895 57.895 0 00-.245-1.022 11.21 11.21 0 00-.286-1.02c-.218-.764-.6-1.294-1.144-1.594-.517-.3-1.266-.463-2.246-.49l-.164-.205.327-2.083.53.04c.382 0 .845.015 1.39.042.545 0 1.103.013 1.675.04h1.43c.898 0 1.824-.027 2.777-.081l2.452-.204 1.02-.123.164.327-.204 1.96c-.899.055-1.593.137-2.084.246-.462.109-.79.272-.98.49-.163.218-.245.517-.245.899 0 .218.068.694.204 1.43.164.735.382 1.66.654 2.777.272 1.09.558 2.26.858 3.514.327 1.225.64 2.45.94 3.676.326 1.198.626 2.301.898 3.31a1145.322 1145.322 0 00.899 3.308h.367c.273-.735.6-1.648.98-2.737.382-1.117.79-2.315 1.226-3.595.463-1.307.913-2.6 1.348-3.88.436-1.308.831-2.52 1.185-3.636.354-1.144.64-2.097.858-2.86.218-.79.327-1.28.327-1.47 0-.49-.19-.831-.572-1.022-.381-.19-1.021-.286-1.92-.286h-1.798l-.163-.204.327-2.084.899.082c.599.027 1.334.068 2.206.123.898.027 1.783.04 2.655.04h2.002a94.962 94.962 0 002.41-.122l-.286 2.288c-.708.027-1.212.177-1.512.449-.3.245-.599.763-.898 1.552l-7.966 21.733-4.249.858c-.027-.19-.163-.763-.408-1.716a278.45 278.45 0 00-.98-3.676 248.097 248.097 0 00-3.023-10.744h-.328l-5.147 15.278-4.29.858zm30.989-.204c-.872 0-1.525-.245-1.961-.736-.436-.517-.654-1.143-.654-1.879 0-.844.26-1.538.776-2.083.545-.545 1.24-.817 2.084-.817.871 0 1.525.259 1.96.776.464.49.695 1.117.695 1.88 0 .789-.258 1.47-.776 2.042-.517.544-1.225.817-2.124.817z" fill="#FBFBFB"/></svg>