<svg width="24" height="24" fill="none" xmlns="http://www.w3.org/2000/svg"><path d="M7.908 9.01c1.016-.411 1.56-1.54 1.147-2.561-.412-1.017-3.176-2.45-3.176-2.45s-.992 2.954-.58 3.97c.413 1.02 1.59 1.454 2.609 1.04v.001zm4.257 6.019s-1.02 2.875-.61 3.89c.414 1.02 1.587 1.455 2.607 1.042 1.019-.412 1.56-1.541 1.147-2.56-.412-1.017-3.144-2.372-3.144-2.372zM5.78 13.88s-1.12 3.096-.676 4.19c.444 1.098 1.733 1.577 2.831 1.133a2.09 2.09 0 001.163-2.75C8.655 15.36 5.78 13.88 5.78 13.88zm6.36-.939c.626-.253.874-.99.652-1.537-.254-.628-1.855-1.436-1.855-1.436s-.589 1.695-.335 2.323c.222.547.912.904 1.539.65zm6.135-.26c-.255-.628-1.856-1.436-1.856-1.436s-.588 1.695-.334 2.323c.222.548.912.905 1.538.651.625-.253.874-.99.652-1.538zm-1.223-6.045c-.411-1.016-3.175-2.448-3.175-2.448s-.992 2.953-.58 3.969c.413 1.02 1.59 1.453 2.608 1.04 1.017-.41 1.56-1.54 1.147-2.56zm2.75 12.105c-.254-.628-1.856-1.436-1.856-1.436s-.588 1.695-.334 2.323c.222.548.912.905 1.538.65.625-.252.874-.989.652-1.537z" fill="#fff"/></svg>