<svg width="24" height="24" fill="none" xmlns="http://www.w3.org/2000/svg"><path d="M3.933 10.376h7.677a3.769 3.769 0 003.77-3.334 3.656 3.656 0 00-.943-2.835A3.697 3.697 0 0011.71 3H9.638a.933.933 0 000 1.865h2.072a1.825 1.825 0 011.806 2.063 1.864 1.864 0 01-1.88 1.581H3.933a.933.933 0 100 1.866zm17.05 6.154a3.768 3.768 0 00-3.77-3.334H10.8a.933.933 0 100 1.865h6.439a1.865 1.865 0 011.88 1.581 1.824 1.824 0 01-1.807 2.063H15.24a.933.933 0 100 1.866h2.071a3.696 3.696 0 002.729-1.207 3.655 3.655 0 00.943-2.835zm-12.238-2.4a.934.934 0 00-.933-.934h-3.88a.933.933 0 100 1.865h3.88a.934.934 0 00.933-.932zm6.96-3.152a.3.3 0 00.212-.088l.632-.632a2.561 2.561 0 002.97-3.18.3.3 0 00-.212-.213 2.561 2.561 0 00-3.18 2.97l-.634.63a.3.3 0 00.212.513z" fill="#fff"/><path d="M9.231 16.324l-.632-.632a.3.3 0 00-.424.424l.632.633a2.573 2.573 0 00.699 2.304c.624.617 2.018 1.142 2.694.45a2.561 2.561 0 00-2.969-3.18v.001z" fill="#fff"/></svg>